<?xml version="1.0" encoding="UTF-8"?>
<svg version="1.1" xmlns="http://www.w3.org/2000/svg" width="180" height="62">
<path d="M0 0 C59.4 0 118.8 0 180 0 C180 20.46 180 40.92 180 62 C120.6 62 61.2 62 0 62 C0 41.54 0 21.08 0 0 Z " fill="#FBFBFC" transform="translate(0,0)"/>
<path d="M0 0 C1.13308594 -0.02449219 2.26617188 -0.04898437 3.43359375 -0.07421875 C9.82898988 -0.09671135 13.95677301 -0.04400495 18.75 4.375 C22.64551355 9.39816221 23.36559975 13.38292437 23.15625 19.70703125 C22.55207668 23.67482337 21.06172213 26.12414075 18.75 29.375 C19.554375 30.179375 20.35875 30.98375 21.1875 31.8125 C24.39570739 35.68794141 25.03569663 39.41426754 24.75 44.375 C23.13268824 50.08315915 20.70859754 53.13284007 15.75 56.375 C11.875 57.1875 11.875 57.1875 8.75 57.375 C9.389375 56.611875 10.02875 55.84875 10.6875 55.0625 C14.90089557 49.57231789 14.48550278 43.02650342 13.75 36.375 C12.20456093 32.86892927 10.26669947 30.13334974 6.75 28.375 C6.75 27.715 6.75 27.055 6.75 26.375 C8.40002828 25.02113064 10.0674387 23.68821858 11.75 22.375 C13.29586876 19.28326248 13.04359521 16.78070448 12.75 13.375 C10.46195522 10.19113718 9.19711492 9.45390263 5.296875 8.765625 C4.04390625 8.71921875 2.7909375 8.6728125 1.5 8.625 C-0.7275 8.5425 -2.955 8.46 -5.25 8.375 C-5.25 14.645 -5.25 20.915 -5.25 27.375 C-7.56 28.365 -9.87 29.355 -12.25 30.375 C-12.91 30.705 -13.57 31.035 -14.25 31.375 C-14.29939115 27.28161348 -14.33571501 23.18834202 -14.35986328 19.09472656 C-14.36992877 17.70179219 -14.38358234 16.30887898 -14.40087891 14.91601562 C-14.4251022 12.9154564 -14.43540814 10.91474385 -14.4453125 8.9140625 C-14.45578613 7.70959473 -14.46625977 6.50512695 -14.47705078 5.26416016 C-13.89585819 -2.13135933 -5.65416969 0.00634587 0 0 Z " fill="#2F2E6A" transform="translate(21.25,2.625)"/>
<path d="M0 0 C4.33153933 1.6521484 7.56021538 4.03624435 10 8 C11.01270841 13.11417748 10.6575624 16.95563619 7.875 21.375 C0.71539457 27.91203105 0.71539457 27.91203105 -3.4375 28.125 C-8.41898736 25.93800555 -11.95907742 22.57817294 -14.9375 18.0625 C-16.24307366 14.29937592 -16.62500219 11.95834721 -16 8 C-11.7904629 1.52477932 -7.88924038 -1.03955694 0 0 Z " fill="#FDF10B" transform="translate(22,34)"/>
<path d="M0 0 C2.33541606 1.63423914 3.99706977 3.21015886 4.69140625 6.02734375 C4.87498831 10.44165787 4.07915898 13.61565294 1.21484375 17.09375 C-2.21435197 19.66564679 -5.62455111 19.595892 -9.78515625 19.09375 C-12.75754866 17.30898759 -15.21119652 15.24166945 -16.78515625 12.09375 C-17.16997682 8.01465194 -17.22637482 5.80285127 -15.03515625 2.28125 C-10.34213499 -2.28140955 -6.15862179 -3.12647758 0 0 Z " fill="#31326B" transform="translate(79.78515625,13.90625)"/>
<path d="M0 0 C0 0.99 0 1.98 0 3 C0.55171875 2.49855469 1.1034375 1.99710938 1.671875 1.48046875 C5.69187994 -1.07587667 9.42236357 0.33744736 14 1 C14 5.29 14 9.58 14 14 C4.79381443 15.45360825 4.79381443 15.45360825 1.375 13.5 C-0.43868042 10.20239924 -0.28487891 7.70342588 0 4 C-1.65 4.66 -3.3 5.32 -5 6 C-5.33 8.64 -5.66 11.28 -6 14 C-6.99 14 -7.98 14 -9 14 C-9 9.71 -9 5.42 -9 1 C-4 0 -4 0 0 0 Z " fill="#34356D" transform="translate(91,44)"/>
<path d="M0 0 C2.9375 2.0625 2.9375 2.0625 5 5 C5.06641554 8.85210127 4.87229157 10.99848005 2.3125 13.9375 C-0.76819895 15.35295627 -2.64720251 15.55879958 -6 15 C-8.89648251 12.40841039 -9.87307907 10.7773907 -10.5 6.9375 C-10 4 -10 4 -8.375 1.625 C-5.24988831 -0.51323431 -3.71837535 -0.6829669 0 0 Z " fill="#38386F" transform="translate(145,44)"/>
<path d="M0 0 C10 0 10 0 14 3 C13.67 4.65 13.34 6.3 13 8 C12.34 7.67 11.68 7.34 11 7 C12 5 12 5 13 4 C10.03 3.67 7.06 3.34 4 3 C4 4.65 4 6.3 4 8 C5.65 8 7.3 8 9 8 C9.33 8.99 9.66 9.98 10 11 C8.02 11 6.04 11 4 11 C4 12.65 4 14.3 4 16 C6.64 16 9.28 16 12 16 C12.33 15.01 12.66 14.02 13 13 C13.1875 15.375 13.1875 15.375 13 18 C10 20 10 20 0 20 C0 13.4 0 6.8 0 0 Z " fill="#393A6F" transform="translate(64,39)"/>
<path d="M0 0 C1.32 0 2.64 0 4 0 C4 6.93 4 13.86 4 21 C-6 21 -6 21 -10 18 C-9.67 15.69 -9.34 13.38 -9 11 C-8.34 11 -7.68 11 -7 11 C-6.67 12.98 -6.34 14.96 -6 17 C-4.35 16.67 -2.7 16.34 -1 16 C-1 15.2575 -1 14.515 -1 13.75 C-1 9.04626734 -0.71568643 4.65196181 0 0 Z " fill="#33346B" transform="translate(119,38)"/>
<path d="M0 0 C1.32 0 2.64 0 4 0 C4 6.93 4 13.86 4 21 C2.35 20.67 0.7 20.34 -1 20 C-1.33 19.34 -1.66 18.68 -2 18 C-1.34 18 -0.68 18 0 18 C-0.33 15.69 -0.66 13.38 -1 11 C-2.65 11 -4.3 11 -6 11 C-6.66 12.65 -7.32 14.3 -8 16 C-8.33 16 -8.66 16 -9 16 C-10.32 9.64 -10.32 9.64 -9 7 C-5.88291635 5.44145818 -3.3141692 6.31215356 0 7 C0 4.69 0 2.38 0 0 Z " fill="#2A2A66" transform="translate(172,38)"/>
<path d="M0 0 C1.32 0 2.64 0 4 0 C4.33 3.63 4.66 7.26 5 11 C5.99 11 6.98 11 8 11 C8.33 7.37 8.66 3.74 9 0 C10.32 0 11.64 0 13 0 C13 4.95 13 9.9 13 15 C11.411875 15.061875 9.82375 15.12375 8.1875 15.1875 C7.29417969 15.22230469 6.40085937 15.25710937 5.48046875 15.29296875 C3 15 3 15 1.1875 13.875 C-0.53655061 11.15281483 -0.29030574 8.99947795 -0.1875 5.8125 C-0.16042969 4.72582031 -0.13335937 3.63914062 -0.10546875 2.51953125 C-0.07066406 1.68808594 -0.03585938 0.85664063 0 0 Z " fill="#303169" transform="translate(87,18)"/>
<path d="M0 0 C3.5625 0.3125 3.5625 0.3125 5.5625 1.375 C7.19628851 4.54046524 6.41517564 6.96270286 5.5625 10.3125 C2.32996204 12.46752531 1.31099077 12.78106135 -2.4375 12.3125 C-4.25 11.25 -4.25 11.25 -5.4375 9.3125 C-5.75 5.75 -5.75 5.75 -5.4375 2.3125 C-3.4375 0.3125 -3.4375 0.3125 0 0 Z " fill="#F5F5F7" transform="translate(73.4375,16.6875)"/>
<path d="M0 0 C1.4540625 0.0309375 1.4540625 0.0309375 2.9375 0.0625 C2.9375 1.0525 2.9375 2.0425 2.9375 3.0625 C1.6175 3.0625 0.2975 3.0625 -1.0625 3.0625 C-1.0625 4.0525 -1.0625 5.0425 -1.0625 6.0625 C0.2575 6.0625 1.5775 6.0625 2.9375 6.0625 C2.9375 7.3825 2.9375 8.7025 2.9375 10.0625 C1.6175 10.0625 0.2975 10.0625 -1.0625 10.0625 C-1.0625 13.6925 -1.0625 17.3225 -1.0625 21.0625 C-2.3825 21.0625 -3.7025 21.0625 -5.0625 21.0625 C-5.0625 17.4325 -5.0625 13.8025 -5.0625 10.0625 C-5.7225 10.0625 -6.3825 10.0625 -7.0625 10.0625 C-7.0625 8.7425 -7.0625 7.4225 -7.0625 6.0625 C-6.4025 6.0625 -5.7425 6.0625 -5.0625 6.0625 C-4.918125 5.258125 -4.77375 4.45375 -4.625 3.625 C-3.8465 0.0785 -3.8465 0.0785 0 0 Z " fill="#3F3F73" transform="translate(132.0625,37.9375)"/>
<path d="M0 0 C2.97 0.33 5.94 0.66 9 1 C8.67 2.98 8.34 4.96 8 7 C8.99 7.33 9.98 7.66 11 8 C10.67 10.31 10.34 12.62 10 15 C9.34 14.34 8.68 13.68 8 13 C5.31160615 12.73008094 2.70858064 12.91262643 0 13 C0 11.35 0 9.7 0 8 C1.65 7.67 3.3 7.34 5 7 C5 6.34 5 5.68 5 5 C3.35 5 1.7 5 0 5 C0 3.35 0 1.7 0 0 Z " fill="#34356C" transform="translate(68,42)"/>
<path d="M0 0 C1.66611905 -0.042721 3.33382885 -0.04063832 5 0 C6 1 6 1 6.125 4.375 C6 8 6 8 5 11 C2.25 11.3125 2.25 11.3125 -1 11 C-3.77871234 8.44065969 -4.91313862 6.97719051 -5.25 3.1875 C-5.1675 2.465625 -5.085 1.74375 -5 1 C-4.34 1 -3.68 1 -3 1 C-2.67 1.99 -2.34 2.98 -2 4 C-1.34 2.68 -0.68 1.36 0 0 Z " fill="#414175" transform="translate(166,48)"/>
<path d="M0 0 C0.19406478 1.64507218 0.38007935 3.29109594 0.5625 4.9375 C0.66691406 5.85402344 0.77132812 6.77054688 0.87890625 7.71484375 C0.91886719 8.46894531 0.95882812 9.22304688 1 10 C0 11 0 11 -2.5625 11.0625 C-3.366875 11.041875 -4.17125 11.02125 -5 11 C-5.33 9.02 -5.66 7.04 -6 5 C-6.66 5 -7.32 5 -8 5 C-8 6.65 -8 8.3 -8 10 C-8.66 10 -9.32 10 -10 10 C-9.40140845 3.65492958 -9.40140845 3.65492958 -7.8125 1.0625 C-5.19357381 -0.47273259 -2.97085195 -0.1980568 0 0 Z " fill="#404174" transform="translate(118,44)"/>
<path d="M0 0 C2.97 0 5.94 0 9 0 C9 1.32 9 2.64 9 4 C7.68 4.33 6.36 4.66 5 5 C4.67 8.3 4.34 11.6 4 15 C2.68 15 1.36 15 0 15 C0 10.05 0 5.1 0 0 Z " fill="#35366D" transform="translate(152,44)"/>
<path d="M0 0 C2.97 0 5.94 0 9 0 C9 1.32 9 2.64 9 4 C7.68 4.33 6.36 4.66 5 5 C4.67 8.3 4.34 11.6 4 15 C2.68 15 1.36 15 0 15 C0 10.05 0 5.1 0 0 Z " fill="#38396F" transform="translate(103,18)"/>
<path d="M0 0 C2.5 0.25 2.5 0.25 4.5 2.25 C4.75 4.75 4.75 4.75 4.5 7.25 C2.5 9.25 2.5 9.25 0 9.5 C-2.5 9.25 -2.5 9.25 -4.5 7.25 C-4.75 4.75 -4.75 4.75 -4.5 2.25 C-2.5 0.25 -2.5 0.25 0 0 Z " fill="#FEFEF6" transform="translate(18.5,42.75)"/>
<path d="M0 0 C0.66 0 1.32 0 2 0 C2.33 1.65 2.66 3.3 3 5 C3.66 4.01 4.32 3.02 5 2 C5.28875 2.9075 5.5775 3.815 5.875 4.75 C6.76531776 7.32202908 7.71494413 9.61346766 9 12 C7.68 12.33 6.36 12.66 5 13 C0.07692308 7.95384615 0.07692308 7.95384615 -0.3125 3.125 C-0.209375 2.09375 -0.10625 1.0625 0 0 Z " fill="#38386F" transform="translate(63,19)"/>
<path d="M0 0 C0.99 0.33 1.98 0.66 3 1 C2.70703125 2.98567708 2.4140625 4.97135417 2.12109375 6.95703125 C1.86095201 9.2025342 1.86095201 9.2025342 3 12 C2.01 12.33 1.02 12.66 0 13 C-2.23079726 10.58330297 -2.96940652 9.24984673 -3.375 5.9375 C-3 3 -3 3 -1.5 1.125 C-1.005 0.75375 -0.51 0.3825 0 0 Z " fill="#2E2F69" transform="translate(138,45)"/>
<path d="M0 0 C0 0.66 0 1.32 0 2 C1.65 2 3.3 2 5 2 C5 2.33 5 2.66 5 3 C4.071875 3.185625 3.14375 3.37125 2.1875 3.5625 C-1.23787197 5.10727559 -1.5205979 5.38621238 -2.875 8.625 C-3.24625 9.73875 -3.6175 10.8525 -4 12 C-4.66 11.67 -5.32 11.34 -6 11 C-6.9375 7.6875 -6.9375 7.6875 -7 4 C-3.20512821 0 -3.20512821 0 0 0 Z " fill="#282864" transform="translate(71,13)"/>
<path d="M0 0 C1.2065625 0.0309375 1.2065625 0.0309375 2.4375 0.0625 C2.81883299 2.0539056 3.15075582 4.05529077 3.4375 6.0625 C2.4375 7.0625 2.4375 7.0625 -0.0625 7.1875 C-2.5625 7.0625 -2.5625 7.0625 -3.5625 6.0625 C-3.6875 3.5625 -3.6875 3.5625 -3.5625 1.0625 C-2.5625 0.0625 -2.5625 0.0625 0 0 Z " fill="#F2F2F5" transform="translate(98.5625,47.9375)"/>
<path d="M0 0 C1.32 0.33 2.64 0.66 4 1 C3.67 4.96 3.34 8.92 3 13 C2.01 13 1.02 13 0 13 C0 8.71 0 4.42 0 0 Z " fill="#171858" transform="translate(82,45)"/>
<path d="M0 0 C1.66611905 -0.042721 3.33382885 -0.04063832 5 0 C6 1 6 1 6.0625 3.5625 C6.041875 4.366875 6.02125 5.17125 6 6 C3.625 6.625 3.625 6.625 1 7 C0.34 6.34 -0.32 5.68 -1 5 C-0.625 2.375 -0.625 2.375 0 0 Z " fill="#F1F1F4" transform="translate(166,48)"/>
<path d="M0 0 C1.2065625 0.0309375 1.2065625 0.0309375 2.4375 0.0625 C3.0625 2.4375 3.0625 2.4375 3.4375 5.0625 C2.7775 5.7225 2.1175 6.3825 1.4375 7.0625 C-1.1875 6.6875 -1.1875 6.6875 -3.5625 6.0625 C-3.605221 4.39638095 -3.60313832 2.72867115 -3.5625 1.0625 C-2.5625 0.0625 -2.5625 0.0625 0 0 Z " fill="#F2F2F4" transform="translate(142.5625,47.9375)"/>
<path d="M0 0 C2.625 0.375 2.625 0.375 5 1 C5.042721 2.66611905 5.04063832 4.33382885 5 6 C4 7 4 7 1.4375 7.0625 C0.2309375 7.0315625 0.2309375 7.0315625 -1 7 C-1.625 4.625 -1.625 4.625 -2 2 C-1.34 1.34 -0.68 0.68 0 0 Z " fill="#F5F5F7" transform="translate(114,48)"/>
<path d="M0 0 C0.99 0 1.98 0 3 0 C3 4.29 3 8.58 3 13 C2.01 13 1.02 13 0 13 C-0.96661363 9.87819599 -0.98988909 7.47916205 -0.5625 4.25 C-0.46066406 3.45078125 -0.35882813 2.6515625 -0.25390625 1.828125 C-0.17011719 1.22484375 -0.08632812 0.6215625 0 0 Z " fill="#1E1F5E" transform="translate(102,45)"/>
<path d="M0 0 C0.33 0 0.66 0 1 0 C1 3.63 1 7.26 1 11 C5.95 10.01 5.95 10.01 11 9 C11.33 8.01 11.66 7.02 12 6 C12.042721 7.66611905 12.04063832 9.33382885 12 11 C11 12 11 12 8.49609375 12.09765625 C5.6640625 12.06510417 2.83203125 12.03255208 0 12 C0 8.04 0 4.08 0 0 Z " fill="#1D1D5D" transform="translate(65,46)"/>
<path d="M0 0 C0.66 0.66 1.32 1.32 2 2 C1.625 4.625 1.625 4.625 1 7 C0.34 6.67 -0.32 6.34 -1 6 C0 4 0 4 1 3 C-2.63 2.67 -6.26 2.34 -10 2 C-10 1.34 -10 0.68 -10 0 C-6.31938873 -0.9464429 -3.66134991 -1.08850943 0 0 Z " fill="#242561" transform="translate(76,40)"/>
<path d="M0 0 C2.31 0.33 4.62 0.66 7 1 C6.67 2.32 6.34 3.64 6 5 C4.02 5 2.04 5 0 5 C0 3.35 0 1.7 0 0 Z " fill="#E3E3E9" transform="translate(68,50)"/>
<path d="M0 0 C1.4540625 0.0309375 1.4540625 0.0309375 2.9375 0.0625 C2.9375 1.0525 2.9375 2.0425 2.9375 3.0625 C1.6175 3.0625 0.2975 3.0625 -1.0625 3.0625 C-1.0625 4.0525 -1.0625 5.0425 -1.0625 6.0625 C-2.0525 6.0625 -3.0425 6.0625 -4.0625 6.0625 C-4.105221 4.39638095 -4.10313832 2.72867115 -4.0625 1.0625 C-3.0625 0.0625 -3.0625 0.0625 0 0 Z " fill="#2F2F69" transform="translate(132.0625,37.9375)"/>
<path d="M0 0 C1.65 0 3.3 0 5 0 C5.5625 1.9375 5.5625 1.9375 6 4 C5 5 5 5 2.4375 5.0625 C1.2309375 5.0315625 1.2309375 5.0315625 0 5 C0 3.35 0 1.7 0 0 Z " fill="#D5D5DE" transform="translate(68,42)"/>
<path d="M0 0 C1.32 0.33 2.64 0.66 4 1 C3.01 1 2.02 1 1 1 C1 3.31 1 5.62 1 8 C-4.75 9.125 -4.75 9.125 -7 8 C-7 7.34 -7 6.68 -7 6 C-4.69 6.33 -2.38 6.66 0 7 C0 4.69 0 2.38 0 0 Z " fill="#3B3C6F" transform="translate(172,38)"/>
<path d="M0 0 C1.98 0.66 3.96 1.32 6 2 C5.071875 2.3403125 5.071875 2.3403125 4.125 2.6875 C1.38589791 4.37929835 0.94975528 5.99244161 0 9 C-0.33 9 -0.66 9 -1 9 C-1.625 5.625 -1.625 5.625 -2 2 C-1.34 1.34 -0.68 0.68 0 0 Z " fill="#2D2E68" transform="translate(164,45)"/>
<path d="M0 0 C0.33 1.32 0.66 2.64 1 4 C-0.98 4.33 -2.96 4.66 -5 5 C-5.33 3.68 -5.66 2.36 -6 1 C-4 0 -4 0 0 0 Z " fill="#565782" transform="translate(91,44)"/>
<path d="M0 0 C0.33 0.66 0.66 1.32 1 2 C0.67 2.99 0.34 3.98 0 5 C-1.65 5 -3.3 5 -5 5 C-5.33 4.34 -5.66 3.68 -6 3 C-4.02 2.01 -2.04 1.02 0 0 Z " fill="#414274" transform="translate(118,54)"/>
<path d="M0 0 C0.33 0 0.66 0 1 0 C1 3.3 1 6.6 1 10 C0.01 10 -0.98 10 -2 10 C-1.33333333 6.66666667 -0.66666667 3.33333333 0 0 Z " fill="#1E205E" transform="translate(129,48)"/>
<path d="M0 0 C0.99 0 1.98 0 3 0 C3 1.32 3 2.64 3 4 C2.34 4 1.68 4 1 4 C1 6.31 1 8.62 1 11 C0.67 11 0.34 11 0 11 C0 7.37 0 3.74 0 0 Z " fill="#242563" transform="translate(83,46)"/>
<path d="M0 0 C0.99 0.33 1.98 0.66 3 1 C2.67 3.31 2.34 5.62 2 8 C0.23537317 4.91190305 0 3.76687864 0 0 Z " fill="#30316A" transform="translate(118,45)"/>
<path d="M0 0 C1.32 0 2.64 0 4 0 C4 1.32 4 2.64 4 4 C2.35 4 0.7 4 -1 4 C-0.67 2.68 -0.34 1.36 0 0 Z " fill="#444475" transform="translate(157,44)"/>
<path d="M0 0 C0.99 0 1.98 0 3 0 C3 1.32 3 2.64 3 4 C1.35 4 -0.3 4 -2 4 C-1.34 2.68 -0.68 1.36 0 0 Z " fill="#3A3B6E" transform="translate(109,18)"/>
</svg>
